<mxfile host="Electron" modified="2024-03-09T04:33:54.297Z" agent="Mozilla/5.0 (X11; Linux x86_64) AppleWebKit/537.36 (KHTML, like Gecko) draw.io/23.1.5 Chrome/120.0.6099.109 Electron/28.1.0 Safari/537.36" etag="6OwcGahG1WLqdP_UX4w1" version="23.1.5" type="device">
  <diagram name="Page-1" id="Ikk-44iAqlB9v3dyu7Yl">
    <mxGraphModel dx="880" dy="534" grid="1" gridSize="10" guides="1" tooltips="1" connect="1" arrows="1" fold="1" page="1" pageScale="1" pageWidth="850" pageHeight="1100" math="0" shadow="0">
      <root>
        <mxCell id="0" />
        <mxCell id="1" parent="0" />
        <mxCell id="ILhAsIOJ0kpENmMuVwWW-3" value="" style="edgeStyle=orthogonalEdgeStyle;rounded=0;orthogonalLoop=1;jettySize=auto;html=1;" edge="1" parent="1" source="ILhAsIOJ0kpENmMuVwWW-1" target="ILhAsIOJ0kpENmMuVwWW-2">
          <mxGeometry relative="1" as="geometry" />
        </mxCell>
        <mxCell id="ILhAsIOJ0kpENmMuVwWW-1" value="User" style="shape=umlActor;verticalLabelPosition=bottom;verticalAlign=top;html=1;outlineConnect=0;" vertex="1" parent="1">
          <mxGeometry x="60" y="130" width="30" height="60" as="geometry" />
        </mxCell>
        <mxCell id="ILhAsIOJ0kpENmMuVwWW-2" value="CLIENT BROWSER" style="rounded=0;whiteSpace=wrap;html=1;" vertex="1" parent="1">
          <mxGeometry x="130" y="130" width="150" height="60" as="geometry" />
        </mxCell>
        <mxCell id="ILhAsIOJ0kpENmMuVwWW-5" value="SERVER" style="rounded=0;whiteSpace=wrap;html=1;" vertex="1" parent="1">
          <mxGeometry x="550" y="50" width="150" height="220" as="geometry" />
        </mxCell>
        <mxCell id="ILhAsIOJ0kpENmMuVwWW-7" value="" style="shape=flexArrow;endArrow=classic;html=1;rounded=0;" edge="1" parent="1">
          <mxGeometry width="50" height="50" relative="1" as="geometry">
            <mxPoint x="310" y="90" as="sourcePoint" />
            <mxPoint x="540" y="90" as="targetPoint" />
            <Array as="points" />
          </mxGeometry>
        </mxCell>
        <mxCell id="ILhAsIOJ0kpENmMuVwWW-9" value="REQUEST" style="edgeLabel;html=1;align=center;verticalAlign=middle;resizable=0;points=[];" vertex="1" connectable="0" parent="ILhAsIOJ0kpENmMuVwWW-7">
          <mxGeometry x="-0.2696" y="2" relative="1" as="geometry">
            <mxPoint as="offset" />
          </mxGeometry>
        </mxCell>
        <mxCell id="ILhAsIOJ0kpENmMuVwWW-8" value="" style="shape=flexArrow;endArrow=classic;html=1;rounded=0;" edge="1" parent="1">
          <mxGeometry width="50" height="50" relative="1" as="geometry">
            <mxPoint x="530" y="140.5" as="sourcePoint" />
            <mxPoint x="300" y="140" as="targetPoint" />
            <Array as="points" />
          </mxGeometry>
        </mxCell>
        <mxCell id="ILhAsIOJ0kpENmMuVwWW-11" value="RESPONSE" style="edgeLabel;html=1;align=center;verticalAlign=middle;resizable=0;points=[];" vertex="1" connectable="0" parent="ILhAsIOJ0kpENmMuVwWW-8">
          <mxGeometry x="0.3043" y="4" relative="1" as="geometry">
            <mxPoint as="offset" />
          </mxGeometry>
        </mxCell>
        <mxCell id="ILhAsIOJ0kpENmMuVwWW-12" value="HTML" style="rounded=1;whiteSpace=wrap;html=1;" vertex="1" parent="1">
          <mxGeometry x="430" y="110" width="80" height="30" as="geometry" />
        </mxCell>
        <mxCell id="ILhAsIOJ0kpENmMuVwWW-13" value="" style="shape=flexArrow;endArrow=classic;html=1;rounded=0;" edge="1" parent="1">
          <mxGeometry width="50" height="50" relative="1" as="geometry">
            <mxPoint x="315" y="190" as="sourcePoint" />
            <mxPoint x="545" y="190" as="targetPoint" />
            <Array as="points" />
          </mxGeometry>
        </mxCell>
        <mxCell id="ILhAsIOJ0kpENmMuVwWW-14" value="REQUEST" style="edgeLabel;html=1;align=center;verticalAlign=middle;resizable=0;points=[];" vertex="1" connectable="0" parent="ILhAsIOJ0kpENmMuVwWW-13">
          <mxGeometry x="-0.2696" y="2" relative="1" as="geometry">
            <mxPoint as="offset" />
          </mxGeometry>
        </mxCell>
        <mxCell id="ILhAsIOJ0kpENmMuVwWW-15" value="" style="shape=flexArrow;endArrow=classic;html=1;rounded=0;" edge="1" parent="1">
          <mxGeometry width="50" height="50" relative="1" as="geometry">
            <mxPoint x="535" y="240.5" as="sourcePoint" />
            <mxPoint x="305" y="240" as="targetPoint" />
            <Array as="points" />
          </mxGeometry>
        </mxCell>
        <mxCell id="ILhAsIOJ0kpENmMuVwWW-16" value="RESPONSE" style="edgeLabel;html=1;align=center;verticalAlign=middle;resizable=0;points=[];" vertex="1" connectable="0" parent="ILhAsIOJ0kpENmMuVwWW-15">
          <mxGeometry x="0.3043" y="4" relative="1" as="geometry">
            <mxPoint as="offset" />
          </mxGeometry>
        </mxCell>
        <mxCell id="ILhAsIOJ0kpENmMuVwWW-17" value="HTML" style="rounded=1;whiteSpace=wrap;html=1;" vertex="1" parent="1">
          <mxGeometry x="435" y="210" width="80" height="30" as="geometry" />
        </mxCell>
        <mxCell id="ILhAsIOJ0kpENmMuVwWW-18" value="JavaScript makes this more &#39;reactive&#39;" style="shape=process;whiteSpace=wrap;html=1;backgroundOutline=1;" vertex="1" parent="1">
          <mxGeometry x="119" y="285" width="160" height="60" as="geometry" />
        </mxCell>
        <mxCell id="ILhAsIOJ0kpENmMuVwWW-19" style="edgeStyle=orthogonalEdgeStyle;rounded=0;orthogonalLoop=1;jettySize=auto;html=1;entryX=0.46;entryY=1.083;entryDx=0;entryDy=0;entryPerimeter=0;" edge="1" parent="1" source="ILhAsIOJ0kpENmMuVwWW-18" target="ILhAsIOJ0kpENmMuVwWW-2">
          <mxGeometry relative="1" as="geometry" />
        </mxCell>
      </root>
    </mxGraphModel>
  </diagram>
</mxfile>
